Coordinates
version=1
nRows=27
nColumns=12
inDegrees=yes

Units are S.I. units (second, meters, Newtons, ...)
Angles are in degrees

endheader
time	SC_y	SC_z	SC_x	AC_y	AC_z	AC_x	GH_y	GH_z	GH_yy	EL_x	PS_y
       0.0              -12.07          39.66          79.24          55.68         -5.396         -6.272          -41.7          80.47         -149.7          14.57          27.13
   0.02076              -12.07          39.65          79.23          55.68         -5.396         -6.274         -41.69          80.47         -149.7          14.58          27.13
   0.04151              -12.07          39.65          79.22          55.68         -5.396         -6.276         -41.69          80.47         -149.7          14.59          27.13
   0.06227              -12.07          39.65          79.21          55.68         -5.396         -6.279         -41.68          80.47         -149.7          14.59          27.13
   0.08303              -12.07          39.64           79.2          55.68         -5.396         -6.281         -41.68          80.47         -149.6           14.6          27.14
    0.1038              -12.07          39.64          79.19          55.68         -5.396         -6.284         -41.67          80.47         -149.6          14.61          27.14
    0.1245              -12.07          39.63          79.18          55.69         -5.397         -6.286         -41.66          80.47         -149.6          14.62          27.14
    0.1453              -12.07          39.63          79.17          55.69         -5.397         -6.289         -41.66          80.48         -149.6          14.63          27.14
    0.1661              -12.07          39.62          79.15          55.69         -5.397         -6.292         -41.65          80.48         -149.5          14.64          27.14
    0.1868              -12.07          39.62          79.14          55.69         -5.397         -6.296         -41.64          80.48         -149.5          14.65          27.14
    0.2076              -12.07          39.61          79.12          55.69         -5.397         -6.299         -41.63          80.48         -149.5          14.67          27.14
    0.2283              -12.07          39.61          79.11           55.7         -5.397         -6.303         -41.62          80.48         -149.4          14.68          27.15
    0.2491              -12.07           39.6          79.09           55.7         -5.398         -6.307         -41.61          80.48         -149.4           14.7          27.15
    0.2698              -12.07          39.59          79.07           55.7         -5.398         -6.312          -41.6          80.48         -149.3          14.71          27.15
    0.2906              -12.07          39.58          79.05          55.71         -5.398         -6.317         -41.59          80.48         -149.3          14.73          27.15
    0.3114              -12.07          39.58          79.03          55.71         -5.398         -6.322         -41.58          80.48         -149.3          14.75          27.15
    0.3321              -12.07          39.57           79.0          55.71         -5.399         -6.328         -41.56          80.48         -149.2          14.77          27.16
    0.3529              -12.08          39.55          78.98          55.72         -5.399         -6.334         -41.55          80.48         -149.1          14.79          27.16
    0.3736              -12.08          39.54          78.95          55.72         -5.399         -6.341         -41.53          80.48         -149.1          14.82          27.16
    0.3944              -12.08          39.53          78.92          55.73           -5.4         -6.348         -41.51          80.49         -149.0          14.84          27.17
    0.4151              -12.08          39.52          78.88          55.73           -5.4         -6.357         -41.49          80.49         -148.9          14.87          27.17
    0.4359              -12.08           39.5          78.84          55.74         -5.401         -6.366         -41.47          80.49         -148.8          14.91          27.18
    0.4567              -12.08          39.49           78.8          55.75         -5.401         -6.376         -41.44          80.49         -148.8          14.94          27.18
    0.4774              -12.09          39.47          78.75          55.75         -5.402         -6.387         -41.42          80.49         -148.7          14.98          27.19
    0.4982              -12.09          39.45           78.7          55.76         -5.403         -6.399         -41.39           80.5         -148.5          15.03          27.19
    0.5189              -12.09          39.42          78.64          55.77         -5.403         -6.413         -41.35           80.5         -148.4          15.08           27.2
    0.5397              -12.09           39.4          78.58          55.78         -5.404         -6.428         -41.32           80.5         -148.3          15.13          27.21
